<?xml version="1.0" standalone="no"?>
<!DOCTYPE svg PUBLIC "-//W3C//DTD SVG 20010904//EN"
 "http://www.w3.org/TR/2001/REC-SVG-20010904/DTD/svg10.dtd">
<svg version="1.0" xmlns="http://www.w3.org/2000/svg"
 width="1280.000000pt" height="904.000000pt" viewBox="0 0 1280.000000 904.000000"
 preserveAspectRatio="xMidYMid meet">
<metadata>
Created by potrace 1.15, written by Peter Selinger 2001-2017
</metadata>
<g transform="translate(0.000000,904.000000) scale(0.100000,-0.100000)"
fill="#000000" stroke="none">
<path d="M1328 7745 c-25 -13 -60 -41 -77 -62 -63 -77 -61 -36 -61 -1033 0
-1005 -3 -958 66 -1038 19 -22 55 -51 82 -64 46 -23 52 -23 418 -26 l372 -3 6
-31 c3 -17 6 -183 6 -370 0 -283 2 -344 15 -368 25 -48 61 -60 178 -60 114 0
125 -5 160 -75 20 -40 39 -147 31 -171 -4 -11 -30 -41 -58 -69 -71 -69 -91
-113 -90 -200 1 -112 45 -195 193 -360 91 -102 133 -171 133 -219 0 -19 -10
-61 -22 -95 -40 -109 -16 -225 70 -336 22 -29 40 -61 40 -71 0 -21 -48 -71
-112 -118 -48 -35 -95 -110 -104 -162 -15 -98 50 -216 202 -368 121 -121 122
-131 32 -241 -113 -138 -117 -151 -68 -252 59 -127 51 -162 -56 -233 -104 -68
-109 -113 -26 -202 26 -28 104 -88 173 -134 146 -98 174 -104 250 -56 55 36
179 165 242 254 l47 67 0 1520 0 1521 50 0 c28 0 64 7 80 15 58 30 60 41 60
413 0 187 3 353 6 370 l6 31 362 3 361 3 57 28 c31 15 68 43 83 62 58 77 55
24 55 1037 0 1049 5 972 -76 1050 -77 73 49 68 -1576 68 l-1463 -1 -47 -24z
m1967 -259 c100 -46 138 -117 139 -256 1 -110 -16 -152 -83 -213 -70 -63 -99
-67 -496 -67 -389 0 -419 4 -489 62 -61 50 -86 115 -86 223 0 103 17 150 71
204 70 71 69 71 504 71 388 0 390 0 440 -24z"/>
<path d="M5052 7744 c-53 -26 -83 -58 -118 -124 -18 -33 -19 -76 -19 -970 l0
-935 31 -55 c37 -66 101 -113 174 -129 31 -7 185 -11 395 -11 l345 0 0 -371
c0 -325 2 -374 16 -399 30 -49 61 -60 176 -60 115 0 126 -5 161 -75 14 -28 37
-129 37 -163 0 -7 -26 -41 -59 -75 -78 -82 -91 -110 -91 -196 0 -123 45 -208
200 -377 40 -44 83 -98 97 -122 32 -53 34 -122 7 -172 -14 -26 -19 -55 -18
-115 0 -92 17 -138 83 -225 22 -30 41 -64 41 -76 0 -13 -15 -36 -32 -52 -119
-107 -142 -130 -159 -164 -23 -45 -25 -129 -4 -188 22 -63 99 -164 192 -254
74 -71 83 -84 83 -116 0 -40 -11 -60 -86 -146 -54 -62 -74 -99 -74 -134 0 -11
16 -53 35 -94 57 -122 45 -166 -61 -227 -63 -36 -91 -79 -80 -125 11 -43 106
-130 237 -217 92 -61 123 -77 153 -77 77 0 164 69 289 230 l87 112 0 1524 0
1524 53 0 c64 0 107 24 130 73 15 31 17 79 17 395 l0 361 363 3 363 3 60 30
c70 36 117 98 134 178 7 36 10 328 8 947 -3 884 -3 896 -24 940 -26 56 -76
107 -129 131 -38 18 -108 19 -1501 19 l-1460 0 -52 -26z m1939 -244 c47 -13
114 -72 142 -124 18 -34 22 -57 22 -141 0 -112 -14 -153 -70 -210 -70 -70 -70
-70 -474 -73 -229 -2 -383 1 -413 8 -66 14 -132 60 -165 118 -26 43 -28 55
-28 152 0 118 14 157 77 217 65 62 65 62 488 63 225 0 400 -4 421 -10z"/>
<path d="M8745 7751 c-22 -10 -57 -36 -77 -57 -72 -76 -68 -10 -68 -1048 l0
-934 28 -53 c33 -64 97 -112 172 -128 31 -7 185 -11 395 -11 l345 0 0 -366 c0
-313 2 -371 16 -399 24 -51 64 -65 186 -65 88 0 108 -3 121 -18 29 -32 58
-110 64 -175 l6 -64 -65 -64 c-76 -76 -92 -113 -86 -208 5 -99 53 -189 169
-320 103 -116 159 -201 159 -243 0 -15 -10 -51 -22 -80 -46 -113 -20 -247 67
-354 56 -68 50 -90 -44 -167 -92 -76 -122 -121 -129 -188 -10 -107 45 -208
200 -366 94 -96 100 -105 94 -135 -6 -31 -66 -116 -107 -154 -25 -22 -59 -86
-59 -110 0 -9 16 -51 35 -94 55 -121 44 -170 -49 -225 -152 -89 -121 -167 131
-336 148 -99 172 -105 245 -68 51 26 156 130 236 236 l62 82 0 1525 0 1526 56
0 c41 0 64 6 86 21 56 40 58 54 58 448 l0 360 363 3 363 3 59 30 c73 37 119
95 135 168 7 37 10 328 8 957 l-3 905 -30 54 c-32 57 -69 91 -128 116 -32 13
-208 15 -1494 15 -1400 0 -1460 -1 -1498 -19z m1962 -266 c94 -47 132 -121
132 -255 1 -101 -24 -166 -82 -217 -67 -59 -101 -63 -496 -63 -229 0 -370 4
-396 11 -60 17 -121 64 -152 117 -26 43 -28 55 -28 152 0 120 15 162 81 220
69 60 63 59 495 60 l395 0 51 -25z"/>
</g>
</svg>
